G04 EAGLE Gerber RS-274X export*
G75*
%MOMM*%
%FSLAX34Y34*%
%LPD*%
%INBottom Copper*%
%IPPOS*%
%AMOC8*
5,1,8,0,0,1.08239X$1,22.5*%
G01*
%ADD10P,1.429621X8X202.500000*%
%ADD11P,1.429621X8X292.500000*%
%ADD12C,1.524000*%
%ADD13P,1.429621X8X112.500000*%
%ADD14C,1.320800*%
%ADD15C,0.152400*%

G36*
X269106Y10164D02*
X269106Y10164D01*
X269126Y10162D01*
X269227Y10184D01*
X269330Y10200D01*
X269347Y10210D01*
X269366Y10214D01*
X269456Y10267D01*
X269547Y10316D01*
X269561Y10330D01*
X269578Y10340D01*
X269645Y10419D01*
X269717Y10494D01*
X269725Y10512D01*
X269738Y10527D01*
X269776Y10623D01*
X269820Y10717D01*
X269822Y10736D01*
X269830Y10755D01*
X269848Y10921D01*
X269862Y27681D01*
X269860Y27696D01*
X269861Y27709D01*
X269852Y27752D01*
X269852Y27808D01*
X269832Y27865D01*
X269823Y27923D01*
X269793Y27980D01*
X269772Y28041D01*
X269736Y28088D01*
X269708Y28141D01*
X269661Y28185D01*
X269622Y28236D01*
X269573Y28269D01*
X269530Y28310D01*
X269471Y28338D01*
X269418Y28373D01*
X269361Y28389D01*
X269307Y28414D01*
X269243Y28421D01*
X269181Y28438D01*
X269121Y28435D01*
X269062Y28442D01*
X268999Y28428D01*
X268935Y28424D01*
X268880Y28402D01*
X268822Y28390D01*
X268767Y28357D01*
X268707Y28333D01*
X268662Y28294D01*
X268610Y28264D01*
X268569Y28215D01*
X268520Y28173D01*
X268489Y28122D01*
X268450Y28077D01*
X268426Y28017D01*
X268393Y27962D01*
X268374Y27893D01*
X268366Y27874D01*
X268365Y27865D01*
X268358Y27849D01*
X268356Y27824D01*
X268349Y27800D01*
X268131Y26421D01*
X267636Y24900D01*
X266910Y23475D01*
X265970Y22181D01*
X264839Y21050D01*
X263545Y20110D01*
X262120Y19384D01*
X260599Y18889D01*
X259020Y18639D01*
X252123Y18639D01*
X252123Y28038D01*
X252120Y28058D01*
X252122Y28077D01*
X252100Y28179D01*
X252083Y28281D01*
X252074Y28298D01*
X252070Y28318D01*
X252017Y28406D01*
X251968Y28498D01*
X251954Y28512D01*
X251944Y28529D01*
X251865Y28596D01*
X251790Y28667D01*
X251772Y28676D01*
X251757Y28689D01*
X251661Y28727D01*
X251567Y28771D01*
X251547Y28773D01*
X251529Y28781D01*
X251362Y28799D01*
X249838Y28799D01*
X249818Y28796D01*
X249799Y28798D01*
X249697Y28776D01*
X249595Y28759D01*
X249578Y28750D01*
X249558Y28746D01*
X249469Y28693D01*
X249378Y28644D01*
X249364Y28630D01*
X249347Y28620D01*
X249280Y28541D01*
X249209Y28466D01*
X249200Y28448D01*
X249187Y28433D01*
X249148Y28337D01*
X249105Y28243D01*
X249103Y28223D01*
X249095Y28205D01*
X249077Y28038D01*
X249077Y18639D01*
X242180Y18639D01*
X240601Y18889D01*
X239080Y19384D01*
X237655Y20110D01*
X236361Y21050D01*
X235230Y22181D01*
X234290Y23475D01*
X233564Y24900D01*
X233069Y26421D01*
X232844Y27843D01*
X232832Y27879D01*
X232829Y27917D01*
X232794Y27995D01*
X232767Y28076D01*
X232744Y28107D01*
X232729Y28142D01*
X232671Y28205D01*
X232619Y28273D01*
X232588Y28295D01*
X232562Y28323D01*
X232487Y28364D01*
X232417Y28413D01*
X232380Y28423D01*
X232347Y28441D01*
X232262Y28457D01*
X232180Y28480D01*
X232142Y28478D01*
X232105Y28485D01*
X232020Y28473D01*
X231934Y28469D01*
X231899Y28455D01*
X231861Y28449D01*
X231785Y28410D01*
X231705Y28379D01*
X231676Y28355D01*
X231642Y28338D01*
X231582Y28277D01*
X231516Y28222D01*
X231497Y28189D01*
X231470Y28162D01*
X231389Y28015D01*
X231204Y27568D01*
X230203Y26070D01*
X228930Y24797D01*
X227432Y23796D01*
X225767Y23107D01*
X224623Y22879D01*
X224623Y31138D01*
X224620Y31158D01*
X224622Y31177D01*
X224600Y31279D01*
X224583Y31381D01*
X224574Y31398D01*
X224570Y31418D01*
X224517Y31507D01*
X224468Y31598D01*
X224454Y31612D01*
X224444Y31629D01*
X224365Y31696D01*
X224290Y31767D01*
X224272Y31776D01*
X224257Y31789D01*
X224161Y31827D01*
X224067Y31871D01*
X224047Y31873D01*
X224029Y31881D01*
X223862Y31899D01*
X223099Y31899D01*
X223099Y31901D01*
X223862Y31901D01*
X223882Y31904D01*
X223901Y31902D01*
X224003Y31924D01*
X224105Y31941D01*
X224122Y31950D01*
X224142Y31954D01*
X224231Y32007D01*
X224322Y32056D01*
X224336Y32070D01*
X224353Y32080D01*
X224420Y32159D01*
X224491Y32234D01*
X224500Y32252D01*
X224513Y32267D01*
X224552Y32363D01*
X224595Y32457D01*
X224597Y32477D01*
X224605Y32495D01*
X224623Y32662D01*
X224623Y40921D01*
X225767Y40693D01*
X227432Y40004D01*
X228930Y39003D01*
X230203Y37730D01*
X231204Y36232D01*
X231893Y34567D01*
X232201Y33020D01*
X232242Y32911D01*
X232281Y32802D01*
X232285Y32796D01*
X232287Y32789D01*
X232360Y32700D01*
X232432Y32608D01*
X232438Y32604D01*
X232443Y32599D01*
X232541Y32537D01*
X232638Y32473D01*
X232645Y32471D01*
X232651Y32467D01*
X232763Y32440D01*
X232876Y32410D01*
X232883Y32411D01*
X232890Y32409D01*
X233005Y32419D01*
X233121Y32427D01*
X233128Y32430D01*
X233135Y32430D01*
X233241Y32477D01*
X233348Y32521D01*
X233354Y32526D01*
X233360Y32529D01*
X233447Y32607D01*
X233534Y32683D01*
X233539Y32690D01*
X233543Y32694D01*
X233553Y32711D01*
X233626Y32823D01*
X234290Y34125D01*
X235230Y35419D01*
X236361Y36550D01*
X237655Y37490D01*
X239080Y38216D01*
X240601Y38711D01*
X242180Y38961D01*
X249077Y38961D01*
X249077Y29562D01*
X249080Y29542D01*
X249078Y29523D01*
X249100Y29421D01*
X249117Y29319D01*
X249126Y29302D01*
X249130Y29282D01*
X249183Y29193D01*
X249232Y29102D01*
X249246Y29088D01*
X249256Y29071D01*
X249335Y29004D01*
X249410Y28933D01*
X249428Y28924D01*
X249443Y28911D01*
X249539Y28873D01*
X249633Y28829D01*
X249653Y28827D01*
X249671Y28819D01*
X249838Y28801D01*
X251362Y28801D01*
X251382Y28804D01*
X251401Y28802D01*
X251503Y28824D01*
X251605Y28841D01*
X251622Y28850D01*
X251642Y28854D01*
X251731Y28907D01*
X251822Y28956D01*
X251836Y28970D01*
X251853Y28980D01*
X251920Y29059D01*
X251991Y29134D01*
X252000Y29152D01*
X252013Y29167D01*
X252052Y29263D01*
X252095Y29357D01*
X252097Y29377D01*
X252105Y29395D01*
X252123Y29562D01*
X252123Y38961D01*
X259020Y38961D01*
X260599Y38711D01*
X262120Y38216D01*
X263545Y37490D01*
X264839Y36550D01*
X265970Y35419D01*
X266910Y34125D01*
X267636Y32700D01*
X268131Y31179D01*
X268351Y29788D01*
X268371Y29728D01*
X268381Y29665D01*
X268409Y29612D01*
X268428Y29554D01*
X268466Y29504D01*
X268496Y29447D01*
X268540Y29406D01*
X268576Y29358D01*
X268628Y29322D01*
X268674Y29278D01*
X268729Y29252D01*
X268778Y29218D01*
X268840Y29201D01*
X268897Y29174D01*
X268957Y29167D01*
X269015Y29151D01*
X269078Y29154D01*
X269142Y29147D01*
X269201Y29160D01*
X269261Y29162D01*
X269320Y29185D01*
X269382Y29199D01*
X269434Y29230D01*
X269490Y29252D01*
X269539Y29292D01*
X269593Y29325D01*
X269632Y29371D01*
X269679Y29409D01*
X269712Y29463D01*
X269753Y29512D01*
X269776Y29567D01*
X269807Y29619D01*
X269822Y29681D01*
X269845Y29740D01*
X269855Y29826D01*
X269863Y29859D01*
X269861Y29883D01*
X269864Y29906D01*
X269983Y173237D01*
X269979Y173257D01*
X269982Y173277D01*
X269960Y173378D01*
X269943Y173480D01*
X269934Y173497D01*
X269929Y173517D01*
X269876Y173606D01*
X269828Y173697D01*
X269814Y173711D01*
X269803Y173728D01*
X269725Y173795D01*
X269650Y173867D01*
X269632Y173875D01*
X269616Y173888D01*
X269520Y173927D01*
X269427Y173970D01*
X269407Y173973D01*
X269388Y173980D01*
X269221Y173999D01*
X48339Y173999D01*
X48243Y173983D01*
X48146Y173974D01*
X48122Y173963D01*
X48096Y173959D01*
X48010Y173913D01*
X47921Y173874D01*
X47902Y173856D01*
X47879Y173844D01*
X47811Y173773D01*
X47740Y173707D01*
X47727Y173684D01*
X47709Y173666D01*
X47668Y173577D01*
X47621Y173492D01*
X47617Y173466D01*
X47606Y173442D01*
X47595Y173346D01*
X47577Y173250D01*
X47581Y173224D01*
X47578Y173198D01*
X47599Y173103D01*
X47613Y173007D01*
X47625Y172983D01*
X47631Y172958D01*
X47681Y172874D01*
X47725Y172787D01*
X47743Y172769D01*
X47757Y172747D01*
X47831Y172683D01*
X47900Y172615D01*
X47929Y172599D01*
X47944Y172587D01*
X47974Y172574D01*
X48047Y172534D01*
X50900Y171353D01*
X53473Y168780D01*
X54865Y165419D01*
X54865Y161781D01*
X53473Y158420D01*
X50900Y155847D01*
X47539Y154455D01*
X36275Y154455D01*
X36185Y154441D01*
X36094Y154433D01*
X36064Y154421D01*
X36033Y154416D01*
X35952Y154373D01*
X35868Y154337D01*
X35836Y154311D01*
X35815Y154300D01*
X35793Y154277D01*
X35737Y154232D01*
X31165Y149660D01*
X31123Y149602D01*
X31074Y149550D01*
X31052Y149503D01*
X31021Y149461D01*
X31000Y149392D01*
X30970Y149327D01*
X30964Y149275D01*
X30949Y149225D01*
X30951Y149154D01*
X30943Y149083D01*
X30954Y149032D01*
X30955Y148980D01*
X30980Y148912D01*
X30995Y148842D01*
X31022Y148797D01*
X31040Y148749D01*
X31085Y148693D01*
X31121Y148631D01*
X31161Y148597D01*
X31194Y148557D01*
X31254Y148518D01*
X31308Y148471D01*
X31357Y148452D01*
X31400Y148424D01*
X31470Y148406D01*
X31536Y148379D01*
X31608Y148371D01*
X31639Y148363D01*
X31662Y148365D01*
X31703Y148361D01*
X36577Y148361D01*
X36577Y138962D01*
X36580Y138942D01*
X36578Y138923D01*
X36600Y138821D01*
X36617Y138719D01*
X36626Y138702D01*
X36630Y138682D01*
X36683Y138593D01*
X36732Y138502D01*
X36746Y138488D01*
X36756Y138471D01*
X36835Y138404D01*
X36910Y138333D01*
X36928Y138324D01*
X36943Y138311D01*
X37039Y138273D01*
X37133Y138229D01*
X37153Y138227D01*
X37171Y138219D01*
X37338Y138201D01*
X38101Y138201D01*
X38101Y138199D01*
X37338Y138199D01*
X37318Y138196D01*
X37299Y138198D01*
X37197Y138176D01*
X37095Y138159D01*
X37078Y138150D01*
X37058Y138146D01*
X36969Y138093D01*
X36878Y138044D01*
X36864Y138030D01*
X36847Y138020D01*
X36780Y137941D01*
X36709Y137866D01*
X36700Y137848D01*
X36687Y137833D01*
X36648Y137737D01*
X36605Y137643D01*
X36603Y137623D01*
X36595Y137605D01*
X36577Y137438D01*
X36577Y128039D01*
X29680Y128039D01*
X28101Y128289D01*
X26580Y128784D01*
X25155Y129510D01*
X24069Y130298D01*
X24059Y130304D01*
X24050Y130312D01*
X24034Y130319D01*
X24024Y130328D01*
X23959Y130354D01*
X23950Y130359D01*
X23850Y130409D01*
X23838Y130410D01*
X23827Y130415D01*
X23799Y130419D01*
X23796Y130420D01*
X23689Y130432D01*
X23606Y130443D01*
X23594Y130441D01*
X23583Y130443D01*
X23474Y130419D01*
X23364Y130399D01*
X23354Y130393D01*
X23342Y130390D01*
X23247Y130333D01*
X23149Y130279D01*
X23141Y130270D01*
X23131Y130264D01*
X23059Y130180D01*
X22984Y130097D01*
X22979Y130086D01*
X22971Y130077D01*
X22929Y129973D01*
X22894Y129892D01*
X22889Y129882D01*
X22889Y129881D01*
X22885Y129872D01*
X22884Y129860D01*
X22879Y129849D01*
X22861Y129682D01*
X22861Y67442D01*
X22876Y67346D01*
X22886Y67249D01*
X22896Y67225D01*
X22900Y67199D01*
X22946Y67113D01*
X22986Y67024D01*
X23003Y67005D01*
X23016Y66982D01*
X23086Y66915D01*
X23152Y66843D01*
X23175Y66830D01*
X23194Y66812D01*
X23282Y66771D01*
X23368Y66724D01*
X23393Y66720D01*
X23417Y66709D01*
X23514Y66698D01*
X23610Y66681D01*
X23636Y66684D01*
X23661Y66682D01*
X23757Y66702D01*
X23853Y66716D01*
X23876Y66728D01*
X23902Y66734D01*
X23985Y66784D01*
X24072Y66828D01*
X24091Y66847D01*
X24113Y66860D01*
X24176Y66934D01*
X24244Y67004D01*
X24260Y67032D01*
X24273Y67047D01*
X24285Y67078D01*
X24325Y67151D01*
X24627Y67880D01*
X27200Y70453D01*
X30561Y71845D01*
X32252Y71845D01*
X32272Y71848D01*
X32291Y71846D01*
X32393Y71868D01*
X32495Y71884D01*
X32512Y71894D01*
X32532Y71898D01*
X32621Y71951D01*
X32712Y72000D01*
X32726Y72014D01*
X32743Y72024D01*
X32810Y72103D01*
X32882Y72178D01*
X32890Y72196D01*
X32903Y72211D01*
X32942Y72307D01*
X32985Y72401D01*
X32987Y72421D01*
X32995Y72439D01*
X33013Y72606D01*
X33013Y92310D01*
X33010Y92330D01*
X33012Y92349D01*
X32990Y92451D01*
X32974Y92553D01*
X32964Y92570D01*
X32960Y92590D01*
X32907Y92679D01*
X32858Y92770D01*
X32844Y92784D01*
X32834Y92801D01*
X32755Y92868D01*
X32680Y92940D01*
X32662Y92948D01*
X32647Y92961D01*
X32551Y93000D01*
X32457Y93043D01*
X32437Y93045D01*
X32419Y93053D01*
X32252Y93071D01*
X31933Y93071D01*
X27171Y97833D01*
X27171Y104567D01*
X31933Y109329D01*
X38667Y109329D01*
X43429Y104567D01*
X43429Y97833D01*
X38667Y93071D01*
X38348Y93071D01*
X38328Y93068D01*
X38309Y93070D01*
X38207Y93048D01*
X38105Y93032D01*
X38088Y93022D01*
X38068Y93018D01*
X37979Y92965D01*
X37888Y92916D01*
X37874Y92902D01*
X37857Y92892D01*
X37790Y92813D01*
X37718Y92738D01*
X37710Y92720D01*
X37697Y92705D01*
X37658Y92609D01*
X37615Y92515D01*
X37613Y92495D01*
X37605Y92477D01*
X37587Y92310D01*
X37587Y72606D01*
X37590Y72586D01*
X37588Y72567D01*
X37610Y72465D01*
X37626Y72363D01*
X37636Y72346D01*
X37640Y72326D01*
X37693Y72237D01*
X37742Y72146D01*
X37756Y72132D01*
X37766Y72115D01*
X37845Y72048D01*
X37920Y71976D01*
X37938Y71968D01*
X37953Y71955D01*
X38049Y71916D01*
X38143Y71873D01*
X38163Y71871D01*
X38181Y71863D01*
X38348Y71845D01*
X49439Y71845D01*
X52800Y70453D01*
X55373Y67880D01*
X56765Y64519D01*
X56765Y60881D01*
X55373Y57520D01*
X52800Y54947D01*
X49439Y53555D01*
X30561Y53555D01*
X27200Y54947D01*
X24627Y57520D01*
X24325Y58249D01*
X24274Y58332D01*
X24228Y58418D01*
X24209Y58436D01*
X24196Y58459D01*
X24121Y58521D01*
X24050Y58588D01*
X24026Y58599D01*
X24006Y58615D01*
X23915Y58650D01*
X23827Y58691D01*
X23801Y58694D01*
X23777Y58704D01*
X23679Y58708D01*
X23583Y58718D01*
X23557Y58713D01*
X23531Y58714D01*
X23437Y58687D01*
X23342Y58666D01*
X23320Y58653D01*
X23295Y58645D01*
X23215Y58590D01*
X23131Y58540D01*
X23114Y58520D01*
X23093Y58505D01*
X23034Y58427D01*
X22971Y58353D01*
X22961Y58329D01*
X22946Y58308D01*
X22916Y58215D01*
X22879Y58125D01*
X22876Y58092D01*
X22870Y58074D01*
X22870Y58041D01*
X22861Y57958D01*
X22861Y43827D01*
X22862Y43819D01*
X22861Y43811D01*
X22882Y43698D01*
X22900Y43584D01*
X22904Y43577D01*
X22906Y43570D01*
X22962Y43469D01*
X23016Y43367D01*
X23021Y43362D01*
X23025Y43355D01*
X23110Y43277D01*
X23194Y43198D01*
X23201Y43194D01*
X23207Y43189D01*
X23313Y43143D01*
X23417Y43094D01*
X23425Y43093D01*
X23432Y43090D01*
X23547Y43080D01*
X23661Y43067D01*
X23669Y43069D01*
X23677Y43068D01*
X23790Y43095D01*
X23902Y43119D01*
X23909Y43123D01*
X23916Y43125D01*
X24015Y43187D01*
X24113Y43245D01*
X24118Y43251D01*
X24125Y43256D01*
X24238Y43380D01*
X24630Y43919D01*
X25761Y45050D01*
X27055Y45990D01*
X28480Y46716D01*
X30001Y47211D01*
X31580Y47461D01*
X38477Y47461D01*
X38477Y38062D01*
X38480Y38042D01*
X38478Y38023D01*
X38500Y37921D01*
X38517Y37819D01*
X38526Y37802D01*
X38530Y37782D01*
X38583Y37693D01*
X38632Y37602D01*
X38646Y37588D01*
X38656Y37571D01*
X38735Y37504D01*
X38810Y37433D01*
X38828Y37424D01*
X38843Y37411D01*
X38939Y37373D01*
X39033Y37329D01*
X39053Y37327D01*
X39071Y37319D01*
X39238Y37301D01*
X40001Y37301D01*
X40001Y37299D01*
X39238Y37299D01*
X39218Y37296D01*
X39199Y37298D01*
X39097Y37276D01*
X38995Y37259D01*
X38978Y37250D01*
X38958Y37246D01*
X38869Y37193D01*
X38778Y37144D01*
X38764Y37130D01*
X38747Y37120D01*
X38680Y37041D01*
X38609Y36966D01*
X38600Y36948D01*
X38587Y36933D01*
X38548Y36836D01*
X38505Y36743D01*
X38503Y36723D01*
X38495Y36705D01*
X38477Y36538D01*
X38477Y27139D01*
X33603Y27139D01*
X33532Y27128D01*
X33461Y27126D01*
X33412Y27108D01*
X33360Y27100D01*
X33297Y27066D01*
X33230Y27041D01*
X33189Y27009D01*
X33143Y26984D01*
X33094Y26932D01*
X33038Y26888D01*
X33010Y26844D01*
X32974Y26806D01*
X32944Y26741D01*
X32905Y26681D01*
X32892Y26630D01*
X32870Y26583D01*
X32862Y26512D01*
X32845Y26442D01*
X32849Y26390D01*
X32843Y26339D01*
X32858Y26268D01*
X32864Y26197D01*
X32884Y26149D01*
X32895Y26098D01*
X32932Y26037D01*
X32960Y25971D01*
X33005Y25915D01*
X33021Y25887D01*
X33039Y25872D01*
X33065Y25840D01*
X39485Y19420D01*
X39559Y19367D01*
X39628Y19307D01*
X39659Y19295D01*
X39685Y19276D01*
X39772Y19249D01*
X39857Y19215D01*
X39897Y19211D01*
X39920Y19204D01*
X39952Y19205D01*
X40023Y19197D01*
X130647Y19197D01*
X130738Y19211D01*
X130828Y19219D01*
X130858Y19231D01*
X130890Y19236D01*
X130971Y19279D01*
X131055Y19315D01*
X131087Y19341D01*
X131108Y19352D01*
X131130Y19375D01*
X131186Y19420D01*
X139372Y27606D01*
X139439Y27700D01*
X139510Y27794D01*
X139512Y27800D01*
X139515Y27805D01*
X139549Y27916D01*
X139586Y28028D01*
X139586Y28034D01*
X139588Y28040D01*
X139585Y28157D01*
X139583Y28274D01*
X139581Y28281D01*
X139581Y28286D01*
X139575Y28304D01*
X139537Y28435D01*
X138771Y30283D01*
X138771Y33517D01*
X140009Y36505D01*
X142295Y38791D01*
X145283Y40029D01*
X148517Y40029D01*
X150365Y39263D01*
X150478Y39237D01*
X150592Y39208D01*
X150598Y39209D01*
X150604Y39207D01*
X150721Y39218D01*
X150837Y39227D01*
X150843Y39230D01*
X150849Y39230D01*
X150957Y39278D01*
X151063Y39324D01*
X151069Y39328D01*
X151074Y39330D01*
X151088Y39343D01*
X151194Y39428D01*
X215572Y103806D01*
X215639Y103900D01*
X215710Y103994D01*
X215712Y104000D01*
X215715Y104005D01*
X215749Y104116D01*
X215786Y104228D01*
X215786Y104234D01*
X215788Y104240D01*
X215785Y104357D01*
X215783Y104474D01*
X215781Y104481D01*
X215781Y104486D01*
X215775Y104504D01*
X215737Y104635D01*
X214971Y106483D01*
X214971Y109717D01*
X216209Y112705D01*
X216908Y113404D01*
X216950Y113462D01*
X216999Y113514D01*
X217021Y113561D01*
X217052Y113603D01*
X217073Y113672D01*
X217103Y113737D01*
X217109Y113789D01*
X217124Y113839D01*
X217122Y113910D01*
X217130Y113981D01*
X217119Y114032D01*
X217118Y114084D01*
X217093Y114152D01*
X217078Y114222D01*
X217051Y114267D01*
X217033Y114315D01*
X216988Y114371D01*
X216951Y114433D01*
X216912Y114467D01*
X216879Y114507D01*
X216819Y114546D01*
X216765Y114593D01*
X216716Y114612D01*
X216672Y114640D01*
X216603Y114658D01*
X216536Y114685D01*
X216465Y114693D01*
X216434Y114701D01*
X216411Y114699D01*
X216370Y114703D01*
X182453Y114703D01*
X182362Y114689D01*
X182272Y114681D01*
X182242Y114669D01*
X182210Y114664D01*
X182129Y114621D01*
X182045Y114585D01*
X182013Y114559D01*
X181992Y114548D01*
X181970Y114525D01*
X181914Y114480D01*
X154428Y86994D01*
X154361Y86900D01*
X154290Y86806D01*
X154288Y86800D01*
X154285Y86795D01*
X154251Y86684D01*
X154214Y86572D01*
X154214Y86566D01*
X154212Y86560D01*
X154215Y86443D01*
X154217Y86326D01*
X154219Y86319D01*
X154219Y86314D01*
X154225Y86296D01*
X154263Y86165D01*
X155029Y84317D01*
X155029Y81083D01*
X153791Y78095D01*
X151505Y75809D01*
X148517Y74571D01*
X145283Y74571D01*
X142295Y75809D01*
X140009Y78095D01*
X138953Y80643D01*
X138892Y80743D01*
X138832Y80843D01*
X138827Y80847D01*
X138824Y80852D01*
X138733Y80927D01*
X138645Y81003D01*
X138639Y81005D01*
X138634Y81009D01*
X138526Y81051D01*
X138417Y81095D01*
X138409Y81096D01*
X138405Y81097D01*
X138386Y81098D01*
X138250Y81113D01*
X117290Y81113D01*
X117270Y81110D01*
X117251Y81112D01*
X117149Y81090D01*
X117047Y81074D01*
X117030Y81064D01*
X117010Y81060D01*
X116921Y81007D01*
X116830Y80958D01*
X116816Y80944D01*
X116799Y80934D01*
X116732Y80855D01*
X116660Y80780D01*
X116652Y80762D01*
X116639Y80747D01*
X116600Y80651D01*
X116557Y80557D01*
X116555Y80537D01*
X116547Y80519D01*
X116529Y80352D01*
X116529Y80033D01*
X111767Y75271D01*
X109648Y75271D01*
X109628Y75268D01*
X109609Y75270D01*
X109507Y75248D01*
X109405Y75232D01*
X109388Y75222D01*
X109368Y75218D01*
X109279Y75165D01*
X109188Y75116D01*
X109174Y75102D01*
X109157Y75092D01*
X109090Y75013D01*
X109018Y74938D01*
X109010Y74920D01*
X108997Y74905D01*
X108958Y74809D01*
X108915Y74715D01*
X108913Y74695D01*
X108905Y74677D01*
X108887Y74510D01*
X108887Y66290D01*
X108890Y66270D01*
X108888Y66251D01*
X108910Y66149D01*
X108926Y66047D01*
X108936Y66030D01*
X108940Y66010D01*
X108993Y65921D01*
X109042Y65830D01*
X109056Y65816D01*
X109066Y65799D01*
X109145Y65732D01*
X109220Y65660D01*
X109238Y65652D01*
X109253Y65639D01*
X109349Y65600D01*
X109443Y65557D01*
X109463Y65555D01*
X109481Y65547D01*
X109648Y65529D01*
X109967Y65529D01*
X114729Y60767D01*
X114729Y54033D01*
X112792Y52096D01*
X112750Y52038D01*
X112701Y51986D01*
X112679Y51939D01*
X112648Y51897D01*
X112627Y51828D01*
X112597Y51763D01*
X112591Y51711D01*
X112576Y51661D01*
X112578Y51590D01*
X112570Y51519D01*
X112581Y51468D01*
X112582Y51416D01*
X112607Y51348D01*
X112622Y51278D01*
X112649Y51233D01*
X112667Y51185D01*
X112712Y51129D01*
X112749Y51067D01*
X112788Y51033D01*
X112821Y50993D01*
X112881Y50954D01*
X112935Y50907D01*
X112984Y50888D01*
X113028Y50860D01*
X113097Y50842D01*
X113164Y50815D01*
X113235Y50807D01*
X113266Y50799D01*
X113289Y50801D01*
X113330Y50797D01*
X136847Y50797D01*
X136938Y50811D01*
X137028Y50819D01*
X137058Y50831D01*
X137090Y50836D01*
X137171Y50879D01*
X137255Y50915D01*
X137287Y50941D01*
X137308Y50952D01*
X137330Y50975D01*
X137386Y51020D01*
X139372Y53006D01*
X139439Y53100D01*
X139449Y53113D01*
X139460Y53124D01*
X139463Y53132D01*
X139510Y53194D01*
X139512Y53200D01*
X139515Y53205D01*
X139549Y53316D01*
X139550Y53320D01*
X139563Y53347D01*
X139565Y53365D01*
X139586Y53428D01*
X139586Y53434D01*
X139588Y53440D01*
X139585Y53543D01*
X139590Y53591D01*
X139584Y53620D01*
X139583Y53674D01*
X139581Y53681D01*
X139581Y53686D01*
X139575Y53704D01*
X139539Y53828D01*
X139538Y53832D01*
X139537Y53833D01*
X139537Y53835D01*
X138771Y55683D01*
X138771Y58917D01*
X140009Y61905D01*
X142295Y64191D01*
X145283Y65429D01*
X148517Y65429D01*
X151505Y64191D01*
X153791Y61905D01*
X155029Y58917D01*
X155029Y55683D01*
X153791Y52695D01*
X151505Y50409D01*
X148517Y49171D01*
X145283Y49171D01*
X143435Y49937D01*
X143322Y49963D01*
X143208Y49992D01*
X143202Y49991D01*
X143196Y49993D01*
X143079Y49982D01*
X142963Y49973D01*
X142957Y49970D01*
X142951Y49970D01*
X142843Y49922D01*
X142737Y49876D01*
X142731Y49872D01*
X142726Y49870D01*
X142712Y49857D01*
X142606Y49772D01*
X139057Y46223D01*
X101970Y46223D01*
X83813Y64380D01*
X83813Y92310D01*
X83810Y92330D01*
X83812Y92349D01*
X83790Y92451D01*
X83774Y92553D01*
X83764Y92570D01*
X83760Y92590D01*
X83707Y92679D01*
X83658Y92770D01*
X83644Y92784D01*
X83634Y92801D01*
X83555Y92868D01*
X83480Y92940D01*
X83462Y92948D01*
X83447Y92961D01*
X83351Y93000D01*
X83257Y93043D01*
X83237Y93045D01*
X83219Y93053D01*
X83052Y93071D01*
X82733Y93071D01*
X77971Y97833D01*
X77971Y104567D01*
X82733Y109329D01*
X83052Y109329D01*
X83072Y109332D01*
X83091Y109330D01*
X83193Y109352D01*
X83295Y109368D01*
X83312Y109378D01*
X83332Y109382D01*
X83421Y109435D01*
X83512Y109484D01*
X83526Y109498D01*
X83543Y109508D01*
X83610Y109587D01*
X83682Y109662D01*
X83690Y109680D01*
X83703Y109695D01*
X83742Y109791D01*
X83785Y109885D01*
X83787Y109905D01*
X83795Y109923D01*
X83813Y110090D01*
X83813Y112847D01*
X100497Y129531D01*
X100509Y129547D01*
X100524Y129559D01*
X100580Y129647D01*
X100640Y129731D01*
X100646Y129750D01*
X100657Y129766D01*
X100682Y129867D01*
X100713Y129966D01*
X100712Y129986D01*
X100717Y130005D01*
X100709Y130108D01*
X100706Y130211D01*
X100700Y130230D01*
X100698Y130250D01*
X100658Y130345D01*
X100622Y130443D01*
X100609Y130458D01*
X100602Y130476D01*
X100497Y130607D01*
X100271Y130833D01*
X100271Y137567D01*
X105033Y142329D01*
X111767Y142329D01*
X116529Y137567D01*
X116529Y130833D01*
X111767Y126071D01*
X105033Y126071D01*
X104807Y126297D01*
X104791Y126309D01*
X104779Y126324D01*
X104692Y126380D01*
X104608Y126440D01*
X104589Y126446D01*
X104572Y126457D01*
X104471Y126482D01*
X104373Y126513D01*
X104353Y126512D01*
X104333Y126517D01*
X104230Y126509D01*
X104127Y126506D01*
X104108Y126500D01*
X104088Y126498D01*
X103993Y126458D01*
X103896Y126422D01*
X103880Y126409D01*
X103862Y126402D01*
X103731Y126297D01*
X88610Y111176D01*
X88567Y111116D01*
X88527Y111074D01*
X88520Y111059D01*
X88497Y111032D01*
X88485Y111002D01*
X88466Y110976D01*
X88439Y110889D01*
X88430Y110865D01*
X88423Y110851D01*
X88423Y110848D01*
X88405Y110804D01*
X88401Y110763D01*
X88394Y110741D01*
X88395Y110709D01*
X88387Y110637D01*
X88387Y110090D01*
X88390Y110070D01*
X88388Y110051D01*
X88410Y109949D01*
X88426Y109847D01*
X88436Y109830D01*
X88440Y109810D01*
X88493Y109721D01*
X88542Y109630D01*
X88556Y109616D01*
X88566Y109599D01*
X88645Y109532D01*
X88720Y109460D01*
X88738Y109452D01*
X88753Y109439D01*
X88849Y109400D01*
X88943Y109357D01*
X88963Y109355D01*
X88981Y109347D01*
X89148Y109329D01*
X89467Y109329D01*
X94229Y104567D01*
X94229Y97833D01*
X89467Y93071D01*
X89148Y93071D01*
X89128Y93068D01*
X89109Y93070D01*
X89007Y93048D01*
X88905Y93032D01*
X88888Y93022D01*
X88868Y93018D01*
X88779Y92965D01*
X88688Y92916D01*
X88674Y92902D01*
X88657Y92892D01*
X88590Y92813D01*
X88518Y92738D01*
X88510Y92720D01*
X88497Y92705D01*
X88458Y92609D01*
X88415Y92515D01*
X88413Y92495D01*
X88405Y92477D01*
X88387Y92310D01*
X88387Y66590D01*
X88401Y66500D01*
X88409Y66409D01*
X88421Y66379D01*
X88426Y66347D01*
X88469Y66267D01*
X88505Y66183D01*
X88531Y66151D01*
X88542Y66130D01*
X88565Y66108D01*
X88610Y66052D01*
X97172Y57490D01*
X97230Y57448D01*
X97282Y57399D01*
X97329Y57377D01*
X97371Y57346D01*
X97440Y57325D01*
X97505Y57295D01*
X97557Y57289D01*
X97607Y57274D01*
X97678Y57276D01*
X97749Y57268D01*
X97800Y57279D01*
X97852Y57280D01*
X97920Y57305D01*
X97990Y57320D01*
X98035Y57347D01*
X98083Y57365D01*
X98139Y57410D01*
X98201Y57446D01*
X98235Y57486D01*
X98275Y57518D01*
X98314Y57579D01*
X98361Y57633D01*
X98380Y57682D01*
X98408Y57725D01*
X98426Y57795D01*
X98453Y57861D01*
X98461Y57933D01*
X98469Y57964D01*
X98467Y57987D01*
X98471Y58028D01*
X98471Y60767D01*
X103233Y65529D01*
X103552Y65529D01*
X103572Y65532D01*
X103591Y65530D01*
X103693Y65552D01*
X103795Y65568D01*
X103812Y65578D01*
X103832Y65582D01*
X103921Y65635D01*
X104012Y65684D01*
X104026Y65698D01*
X104043Y65708D01*
X104110Y65787D01*
X104182Y65862D01*
X104190Y65880D01*
X104203Y65895D01*
X104242Y65991D01*
X104285Y66085D01*
X104287Y66105D01*
X104295Y66123D01*
X104313Y66290D01*
X104313Y75676D01*
X104299Y75766D01*
X104291Y75857D01*
X104279Y75886D01*
X104274Y75918D01*
X104231Y75999D01*
X104195Y76083D01*
X104169Y76115D01*
X104158Y76136D01*
X104135Y76158D01*
X104090Y76214D01*
X100271Y80033D01*
X100271Y86767D01*
X105033Y91529D01*
X111767Y91529D01*
X116529Y86767D01*
X116529Y86448D01*
X116532Y86428D01*
X116530Y86409D01*
X116552Y86307D01*
X116568Y86205D01*
X116578Y86188D01*
X116582Y86168D01*
X116635Y86079D01*
X116684Y85988D01*
X116698Y85974D01*
X116708Y85957D01*
X116787Y85890D01*
X116862Y85818D01*
X116880Y85810D01*
X116895Y85797D01*
X116991Y85758D01*
X117085Y85715D01*
X117105Y85713D01*
X117123Y85705D01*
X117290Y85687D01*
X138830Y85687D01*
X138945Y85706D01*
X139061Y85723D01*
X139067Y85725D01*
X139073Y85726D01*
X139175Y85781D01*
X139280Y85834D01*
X139285Y85839D01*
X139290Y85842D01*
X139370Y85926D01*
X139452Y86010D01*
X139456Y86016D01*
X139460Y86020D01*
X139467Y86037D01*
X139533Y86157D01*
X140009Y87305D01*
X142295Y89591D01*
X145283Y90829D01*
X148517Y90829D01*
X150365Y90063D01*
X150478Y90037D01*
X150592Y90008D01*
X150598Y90009D01*
X150604Y90007D01*
X150721Y90018D01*
X150837Y90027D01*
X150843Y90030D01*
X150849Y90030D01*
X150957Y90078D01*
X151063Y90124D01*
X151069Y90128D01*
X151074Y90130D01*
X151088Y90143D01*
X151194Y90228D01*
X180243Y119277D01*
X227730Y119277D01*
X234277Y112730D01*
X234277Y65243D01*
X230628Y61594D01*
X230561Y61500D01*
X230490Y61406D01*
X230488Y61400D01*
X230485Y61395D01*
X230451Y61284D01*
X230414Y61172D01*
X230414Y61166D01*
X230412Y61160D01*
X230415Y61043D01*
X230417Y60926D01*
X230419Y60919D01*
X230419Y60914D01*
X230425Y60896D01*
X230463Y60765D01*
X231229Y58917D01*
X231229Y57248D01*
X231232Y57228D01*
X231230Y57209D01*
X231252Y57107D01*
X231268Y57005D01*
X231278Y56988D01*
X231282Y56968D01*
X231335Y56879D01*
X231384Y56788D01*
X231398Y56774D01*
X231408Y56757D01*
X231487Y56690D01*
X231562Y56618D01*
X231580Y56610D01*
X231595Y56597D01*
X231691Y56558D01*
X231785Y56515D01*
X231805Y56513D01*
X231823Y56505D01*
X231990Y56487D01*
X233520Y56487D01*
X233635Y56506D01*
X233751Y56523D01*
X233757Y56525D01*
X233763Y56526D01*
X233866Y56581D01*
X233971Y56634D01*
X233975Y56639D01*
X233980Y56642D01*
X234060Y56726D01*
X234143Y56810D01*
X234146Y56816D01*
X234150Y56820D01*
X234158Y56837D01*
X234224Y56957D01*
X235227Y59380D01*
X237800Y61953D01*
X241161Y63345D01*
X260039Y63345D01*
X263400Y61953D01*
X265973Y59380D01*
X267365Y56019D01*
X267365Y52381D01*
X265973Y49020D01*
X263400Y46447D01*
X260039Y45055D01*
X241161Y45055D01*
X237800Y46447D01*
X235227Y49020D01*
X234316Y51221D01*
X234292Y51260D01*
X234276Y51303D01*
X234227Y51364D01*
X234186Y51430D01*
X234151Y51459D01*
X234122Y51495D01*
X234057Y51537D01*
X233997Y51587D01*
X233954Y51603D01*
X233915Y51628D01*
X233840Y51647D01*
X233767Y51675D01*
X233721Y51677D01*
X233677Y51688D01*
X233599Y51682D01*
X233521Y51685D01*
X233477Y51673D01*
X233431Y51669D01*
X233360Y51639D01*
X233285Y51617D01*
X233247Y51591D01*
X233205Y51573D01*
X233099Y51487D01*
X233083Y51477D01*
X233080Y51473D01*
X233074Y51468D01*
X227730Y46123D01*
X218470Y46123D01*
X216908Y47686D01*
X213486Y51108D01*
X211923Y52670D01*
X211923Y61930D01*
X213486Y63492D01*
X220590Y70597D01*
X220643Y70671D01*
X220703Y70740D01*
X220715Y70770D01*
X220734Y70796D01*
X220761Y70883D01*
X220795Y70968D01*
X220799Y71009D01*
X220806Y71031D01*
X220805Y71064D01*
X220813Y71135D01*
X220813Y74340D01*
X220794Y74455D01*
X220777Y74571D01*
X220775Y74577D01*
X220774Y74583D01*
X220719Y74685D01*
X220666Y74790D01*
X220661Y74795D01*
X220658Y74800D01*
X220574Y74880D01*
X220490Y74963D01*
X220484Y74966D01*
X220480Y74970D01*
X220463Y74977D01*
X220343Y75043D01*
X218495Y75809D01*
X216209Y78095D01*
X214971Y81083D01*
X214971Y84317D01*
X216209Y87305D01*
X218495Y89591D01*
X221483Y90829D01*
X224717Y90829D01*
X227705Y89591D01*
X228404Y88892D01*
X228462Y88850D01*
X228514Y88801D01*
X228561Y88779D01*
X228603Y88748D01*
X228672Y88727D01*
X228737Y88697D01*
X228789Y88691D01*
X228839Y88676D01*
X228910Y88678D01*
X228981Y88670D01*
X229032Y88681D01*
X229084Y88682D01*
X229152Y88707D01*
X229222Y88722D01*
X229267Y88749D01*
X229315Y88767D01*
X229371Y88812D01*
X229433Y88849D01*
X229467Y88888D01*
X229507Y88921D01*
X229546Y88981D01*
X229593Y89035D01*
X229612Y89084D01*
X229640Y89128D01*
X229658Y89197D01*
X229685Y89264D01*
X229693Y89335D01*
X229701Y89366D01*
X229699Y89389D01*
X229703Y89430D01*
X229703Y101370D01*
X229692Y101440D01*
X229690Y101512D01*
X229672Y101561D01*
X229664Y101612D01*
X229630Y101676D01*
X229605Y101743D01*
X229573Y101784D01*
X229548Y101830D01*
X229496Y101879D01*
X229452Y101935D01*
X229408Y101963D01*
X229370Y101999D01*
X229305Y102029D01*
X229245Y102068D01*
X229194Y102081D01*
X229147Y102103D01*
X229076Y102111D01*
X229006Y102128D01*
X228954Y102124D01*
X228903Y102130D01*
X228832Y102115D01*
X228761Y102109D01*
X228713Y102089D01*
X228662Y102078D01*
X228601Y102041D01*
X228535Y102013D01*
X228479Y101968D01*
X228451Y101951D01*
X228436Y101934D01*
X228404Y101908D01*
X227705Y101209D01*
X224717Y99971D01*
X221483Y99971D01*
X219635Y100737D01*
X219522Y100763D01*
X219408Y100792D01*
X219402Y100791D01*
X219396Y100793D01*
X219279Y100782D01*
X219163Y100773D01*
X219157Y100770D01*
X219151Y100770D01*
X219043Y100722D01*
X218937Y100676D01*
X218931Y100672D01*
X218926Y100670D01*
X218912Y100657D01*
X218806Y100572D01*
X154428Y36194D01*
X154361Y36100D01*
X154290Y36006D01*
X154288Y36000D01*
X154285Y35995D01*
X154251Y35884D01*
X154214Y35772D01*
X154214Y35766D01*
X154212Y35760D01*
X154215Y35643D01*
X154217Y35526D01*
X154219Y35519D01*
X154219Y35514D01*
X154225Y35496D01*
X154263Y35365D01*
X155029Y33517D01*
X155029Y30283D01*
X153791Y27295D01*
X151505Y25009D01*
X148517Y23771D01*
X145283Y23771D01*
X143435Y24537D01*
X143322Y24563D01*
X143208Y24592D01*
X143202Y24591D01*
X143196Y24593D01*
X143079Y24582D01*
X142963Y24573D01*
X142957Y24570D01*
X142951Y24570D01*
X142843Y24522D01*
X142737Y24476D01*
X142731Y24472D01*
X142726Y24470D01*
X142712Y24457D01*
X142606Y24372D01*
X132857Y14623D01*
X37814Y14623D01*
X18287Y34150D01*
X18287Y143250D01*
X28443Y153406D01*
X28470Y153444D01*
X28504Y153475D01*
X28541Y153543D01*
X28587Y153606D01*
X28600Y153650D01*
X28622Y153690D01*
X28636Y153767D01*
X28659Y153841D01*
X28658Y153887D01*
X28666Y153932D01*
X28655Y154009D01*
X28653Y154087D01*
X28637Y154130D01*
X28630Y154175D01*
X28595Y154245D01*
X28568Y154318D01*
X28539Y154354D01*
X28519Y154395D01*
X28463Y154449D01*
X28414Y154510D01*
X28376Y154535D01*
X28343Y154567D01*
X28223Y154633D01*
X28208Y154643D01*
X28203Y154644D01*
X28196Y154648D01*
X25300Y155847D01*
X22727Y158420D01*
X21335Y161781D01*
X21335Y165419D01*
X22727Y168780D01*
X25300Y171353D01*
X28153Y172534D01*
X28236Y172586D01*
X28321Y172631D01*
X28339Y172650D01*
X28362Y172664D01*
X28424Y172739D01*
X28491Y172809D01*
X28502Y172833D01*
X28519Y172853D01*
X28553Y172944D01*
X28594Y173032D01*
X28597Y173058D01*
X28607Y173083D01*
X28611Y173180D01*
X28622Y173277D01*
X28616Y173302D01*
X28617Y173329D01*
X28590Y173422D01*
X28569Y173517D01*
X28556Y173540D01*
X28549Y173565D01*
X28493Y173645D01*
X28443Y173728D01*
X28423Y173745D01*
X28408Y173767D01*
X28330Y173825D01*
X28256Y173888D01*
X28232Y173898D01*
X28211Y173914D01*
X28118Y173944D01*
X28028Y173980D01*
X27996Y173984D01*
X27977Y173990D01*
X27944Y173990D01*
X27861Y173999D01*
X11065Y173999D01*
X11046Y173996D01*
X11026Y173998D01*
X10925Y173976D01*
X10823Y173959D01*
X10805Y173950D01*
X10786Y173946D01*
X10697Y173892D01*
X10605Y173844D01*
X10592Y173830D01*
X10575Y173820D01*
X10507Y173741D01*
X10436Y173666D01*
X10428Y173648D01*
X10415Y173633D01*
X10376Y173537D01*
X10332Y173442D01*
X10330Y173423D01*
X10323Y173405D01*
X10304Y173238D01*
X10170Y10923D01*
X10173Y10903D01*
X10171Y10883D01*
X10193Y10782D01*
X10209Y10680D01*
X10219Y10662D01*
X10223Y10642D01*
X10276Y10554D01*
X10324Y10462D01*
X10339Y10448D01*
X10349Y10431D01*
X10428Y10364D01*
X10502Y10293D01*
X10521Y10284D01*
X10536Y10271D01*
X10632Y10233D01*
X10725Y10189D01*
X10745Y10187D01*
X10764Y10179D01*
X10931Y10161D01*
X269087Y10161D01*
X269106Y10164D01*
G37*
%LPC*%
G36*
X145283Y99971D02*
X145283Y99971D01*
X142295Y101209D01*
X140009Y103495D01*
X138771Y106483D01*
X138771Y109717D01*
X140009Y112705D01*
X142295Y114991D01*
X142643Y115135D01*
X142682Y115159D01*
X142725Y115175D01*
X142786Y115224D01*
X142852Y115265D01*
X142881Y115300D01*
X142917Y115329D01*
X142959Y115394D01*
X143008Y115454D01*
X143025Y115497D01*
X143050Y115536D01*
X143069Y115611D01*
X143097Y115684D01*
X143099Y115730D01*
X143110Y115774D01*
X143104Y115852D01*
X143107Y115929D01*
X143094Y115974D01*
X143091Y116019D01*
X143060Y116091D01*
X143038Y116166D01*
X143012Y116203D01*
X142994Y116246D01*
X142909Y116352D01*
X142898Y116368D01*
X142894Y116371D01*
X142890Y116377D01*
X109969Y149297D01*
X109953Y149309D01*
X109941Y149324D01*
X109853Y149380D01*
X109769Y149440D01*
X109750Y149446D01*
X109734Y149457D01*
X109633Y149482D01*
X109534Y149513D01*
X109514Y149512D01*
X109495Y149517D01*
X109392Y149509D01*
X109288Y149506D01*
X109270Y149500D01*
X109250Y149498D01*
X109155Y149458D01*
X109057Y149422D01*
X109042Y149409D01*
X109024Y149402D01*
X108893Y149297D01*
X108667Y149071D01*
X101933Y149071D01*
X97171Y153833D01*
X97171Y160567D01*
X101933Y165329D01*
X108667Y165329D01*
X113429Y160567D01*
X113429Y153833D01*
X113203Y153607D01*
X113191Y153591D01*
X113176Y153579D01*
X113120Y153492D01*
X113060Y153408D01*
X113054Y153389D01*
X113043Y153372D01*
X113018Y153271D01*
X112987Y153173D01*
X112988Y153153D01*
X112983Y153133D01*
X112991Y153030D01*
X112994Y152927D01*
X113000Y152908D01*
X113002Y152888D01*
X113042Y152793D01*
X113078Y152696D01*
X113091Y152680D01*
X113098Y152662D01*
X113203Y152531D01*
X147624Y118110D01*
X149187Y116547D01*
X149187Y116460D01*
X149206Y116345D01*
X149223Y116229D01*
X149225Y116223D01*
X149226Y116217D01*
X149281Y116115D01*
X149334Y116010D01*
X149339Y116005D01*
X149342Y116000D01*
X149426Y115920D01*
X149510Y115837D01*
X149516Y115834D01*
X149520Y115830D01*
X149537Y115823D01*
X149657Y115757D01*
X151505Y114991D01*
X153791Y112705D01*
X155029Y109717D01*
X155029Y106483D01*
X153791Y103495D01*
X151505Y101209D01*
X148517Y99971D01*
X145283Y99971D01*
G37*
%LPD*%
%LPC*%
G36*
X39623Y139723D02*
X39623Y139723D01*
X39623Y148361D01*
X46520Y148361D01*
X48099Y148111D01*
X49620Y147616D01*
X51045Y146890D01*
X52339Y145950D01*
X53470Y144819D01*
X54410Y143525D01*
X55136Y142100D01*
X55631Y140579D01*
X55766Y139723D01*
X39623Y139723D01*
G37*
%LPD*%
%LPC*%
G36*
X41523Y38823D02*
X41523Y38823D01*
X41523Y47461D01*
X48420Y47461D01*
X49999Y47211D01*
X51520Y46716D01*
X52945Y45990D01*
X54239Y45050D01*
X55370Y43919D01*
X56310Y42625D01*
X57036Y41200D01*
X57531Y39679D01*
X57666Y38823D01*
X41523Y38823D01*
G37*
%LPD*%
%LPC*%
G36*
X39623Y128039D02*
X39623Y128039D01*
X39623Y136677D01*
X55766Y136677D01*
X55631Y135821D01*
X55136Y134300D01*
X54410Y132875D01*
X53470Y131581D01*
X52339Y130450D01*
X51045Y129510D01*
X49620Y128784D01*
X48099Y128289D01*
X46520Y128039D01*
X39623Y128039D01*
G37*
%LPD*%
%LPC*%
G36*
X41523Y27139D02*
X41523Y27139D01*
X41523Y35777D01*
X57666Y35777D01*
X57531Y34921D01*
X57036Y33400D01*
X56310Y31975D01*
X55370Y30681D01*
X54239Y29550D01*
X52945Y28610D01*
X51520Y27884D01*
X49999Y27389D01*
X48420Y27139D01*
X41523Y27139D01*
G37*
%LPD*%
%LPC*%
G36*
X81423Y158723D02*
X81423Y158723D01*
X81423Y166345D01*
X83688Y166345D01*
X89045Y160988D01*
X89045Y158723D01*
X81423Y158723D01*
G37*
%LPD*%
%LPC*%
G36*
X108123Y33523D02*
X108123Y33523D01*
X108123Y41145D01*
X110388Y41145D01*
X115745Y35788D01*
X115745Y33523D01*
X108123Y33523D01*
G37*
%LPD*%
%LPC*%
G36*
X70755Y158723D02*
X70755Y158723D01*
X70755Y160988D01*
X76112Y166345D01*
X78377Y166345D01*
X78377Y158723D01*
X70755Y158723D01*
G37*
%LPD*%
%LPC*%
G36*
X81423Y148055D02*
X81423Y148055D01*
X81423Y155677D01*
X89045Y155677D01*
X89045Y153412D01*
X83688Y148055D01*
X81423Y148055D01*
G37*
%LPD*%
%LPC*%
G36*
X97455Y33523D02*
X97455Y33523D01*
X97455Y35788D01*
X102812Y41145D01*
X105077Y41145D01*
X105077Y33523D01*
X97455Y33523D01*
G37*
%LPD*%
%LPC*%
G36*
X108123Y22855D02*
X108123Y22855D01*
X108123Y30477D01*
X115745Y30477D01*
X115745Y28212D01*
X110388Y22855D01*
X108123Y22855D01*
G37*
%LPD*%
%LPC*%
G36*
X102812Y22855D02*
X102812Y22855D01*
X97455Y28212D01*
X97455Y30477D01*
X105077Y30477D01*
X105077Y22855D01*
X102812Y22855D01*
G37*
%LPD*%
%LPC*%
G36*
X76112Y148055D02*
X76112Y148055D01*
X70755Y153412D01*
X70755Y155677D01*
X78377Y155677D01*
X78377Y148055D01*
X76112Y148055D01*
G37*
%LPD*%
%LPC*%
G36*
X214079Y33423D02*
X214079Y33423D01*
X214307Y34567D01*
X214996Y36232D01*
X215997Y37730D01*
X217270Y39003D01*
X218768Y40004D01*
X220433Y40693D01*
X221577Y40921D01*
X221577Y33423D01*
X214079Y33423D01*
G37*
%LPD*%
%LPC*%
G36*
X220433Y23107D02*
X220433Y23107D01*
X218768Y23796D01*
X217270Y24797D01*
X215997Y26070D01*
X214996Y27568D01*
X214307Y29233D01*
X214079Y30377D01*
X221577Y30377D01*
X221577Y22879D01*
X220433Y23107D01*
G37*
%LPD*%
%LPC*%
G36*
X79899Y157199D02*
X79899Y157199D01*
X79899Y157201D01*
X79901Y157201D01*
X79901Y157199D01*
X79899Y157199D01*
G37*
%LPD*%
%LPC*%
G36*
X106599Y31999D02*
X106599Y31999D01*
X106599Y32001D01*
X106601Y32001D01*
X106601Y31999D01*
X106599Y31999D01*
G37*
%LPD*%
D10*
X105300Y157200D03*
X79900Y157200D03*
D11*
X106600Y57400D03*
X106600Y32000D03*
D12*
X45720Y163600D02*
X30480Y163600D01*
X30480Y138200D02*
X45720Y138200D01*
X242980Y54200D02*
X258220Y54200D01*
X258220Y28800D02*
X242980Y28800D01*
D13*
X108400Y83400D03*
X108400Y134200D03*
D10*
X86100Y101200D03*
X35300Y101200D03*
D12*
X32380Y62700D02*
X47620Y62700D01*
X47620Y37300D02*
X32380Y37300D01*
D14*
X223100Y31900D03*
X223100Y57300D03*
X146900Y57300D03*
X146900Y31900D03*
X223100Y82700D03*
X223100Y108100D03*
X146900Y82700D03*
X146900Y108100D03*
D15*
X38100Y159829D02*
X38100Y163600D01*
X38100Y159829D02*
X20574Y142303D01*
X131910Y16910D02*
X146900Y31900D01*
X131910Y16910D02*
X38761Y16910D01*
X20574Y35097D02*
X20574Y142303D01*
X20574Y35097D02*
X38761Y16910D01*
X146900Y31900D02*
X223100Y108100D01*
X146900Y115600D02*
X105300Y157200D01*
X146900Y115600D02*
X146900Y108100D01*
X86100Y111900D02*
X86100Y101200D01*
X86100Y111900D02*
X108400Y134200D01*
X86100Y101200D02*
X86100Y65328D01*
X102918Y48510D01*
X138110Y48510D01*
X146900Y57300D01*
X106600Y57400D02*
X106600Y81600D01*
X108400Y83400D01*
X146200Y83400D01*
X146900Y82700D01*
X226782Y116990D02*
X231990Y111782D01*
X181190Y116990D02*
X146900Y82700D01*
X181190Y116990D02*
X226782Y116990D01*
X231990Y66190D02*
X223100Y57300D01*
X231990Y66190D02*
X231990Y111782D01*
X35300Y101200D02*
X35300Y67400D01*
X40000Y62700D01*
X223100Y69872D02*
X223100Y82700D01*
X223100Y69872D02*
X214210Y60982D01*
X214210Y53618D02*
X219418Y48410D01*
X226782Y48410D01*
X232572Y54200D02*
X250600Y54200D01*
X232572Y54200D02*
X226782Y48410D01*
X214210Y53618D02*
X214210Y60982D01*
M02*
