M48
;GenerationSoftware,Autodesk,EAGLE,9.6.2*%
;CreationDate,2020-07-07T14:13:07Z*%
FMAT,2
ICI,OFF
METRIC,TZ,000.000
T2C0.813
T1C1.016
%
G90
M71
T1
X3810Y16360
X3810Y13820
X25060Y5420
X25060Y2880
X4000Y6270
X4000Y3730
T2
X10530Y15720
X7990Y15720
X10660Y5740
X10660Y3200
X10840Y8340
X10840Y13420
X8610Y10120
X3530Y10120
X22310Y3190
X22310Y5730
X14690Y5730
X14690Y3190
X22310Y8270
X22310Y10810
X14690Y8270
X14690Y10810
M30